<svg xmlns="http://www.w3.org/2000/svg" viewBox="0 0 4208.16 797.51"><defs><style>.cls-1{fill:#7a00cc;}.cls-2{fill:#100020;}</style></defs><polygon class="cls-1" points="185.14 0 565.14 0 380 569.8 0 569.8 185.14 0"/><polygon class="cls-1" points="1548.73 198.22 1589.86 71.65 1669.86 71.65 1628.73 198.22 1548.73 198.22"/><polygon class="cls-2" points="1508.06 569.62 1428.06 569.62 1539.14 227.74 1619.14 227.74 1508.06 569.62"/><polygon class="cls-2" points="746.54 569.62 476.06 569.62 587.14 227.74 857.63 227.74 831.64 307.74 641.15 307.74 582.05 489.62 772.54 489.62 746.54 569.62"/><polygon class="cls-2" points="856.06 569.62 776.06 569.62 887.14 227.74 967.14 227.74 856.06 569.62"/><polygon class="cls-2" points="958.04 797.43 878.04 797.43 1063.14 227.74 1143.14 227.74 958.04 797.43"/><polygon class="cls-2" points="1332.06 569.62 1061.57 569.62 1087.56 489.62 1278.05 489.62 1337.15 307.74 1146.66 307.74 1172.65 227.74 1443.14 227.74 1332.06 569.62"/><polygon class="cls-2" points="2193.08 569.62 1963.08 569.62 2124.88 71.65 2204.88 71.65 2069.07 489.62 2219.07 489.62 2193.08 569.62"/><polygon class="cls-2" points="4097.08 569.62 3717.08 569.62 3743.07 489.62 4042.73 489.62 4059.27 438.71 3759.61 438.71 3828.16 227.74 4208.16 227.74 4182.17 307.74 3882.17 307.74 3865.61 358.71 4165.61 358.71 4097.08 569.62"/><polygon class="cls-2" points="2771.06 797.43 2691.06 797.43 2876.16 227.74 2956.16 227.74 2771.06 797.43"/><polygon class="cls-2" points="3145.08 569.62 2874.59 569.62 2900.58 489.62 3091.07 489.62 3150.17 307.74 2959.68 307.74 2985.68 227.74 3256.16 227.74 3145.08 569.62"/><polygon class="cls-2" points="2018.66 307.74 1898.17 307.74 1924.16 227.74 2044.65 227.74 2018.66 307.74"/><polygon class="cls-2" points="2278.17 307.74 2157.64 307.74 2183.64 227.74 2304.16 227.74 2278.17 307.74"/><polygon class="cls-2" points="3621.08 569.62 3241.08 569.62 3352.16 227.74 3732.16 227.74 3663.67 438.53 3393.18 438.53 3419.18 358.53 3609.67 358.53 3626.17 307.74 3406.17 307.74 3347.07 489.62 3647.07 489.62 3621.08 569.62"/><polygon class="cls-2" points="2595.03 797.51 2354.06 797.51 2380.05 717.51 2541.03 717.51 2700.16 227.74 2780.16 227.74 2595.03 797.51"/><polygon class="cls-2" points="2559.57 569.62 2318.59 569.62 2403.68 307.74 2374.17 307.74 2400.16 227.74 2509.68 227.74 2424.58 489.62 2585.56 489.62 2559.57 569.62"/><polygon class="cls-2" points="1826.11 438.68 1646.6 438.68 1672.6 358.68 1852.11 358.68 1826.11 438.68"/></svg>