<svg xmlns="http://www.w3.org/2000/svg" viewBox="0 0 4221.14 797.51"><defs><style>.cls-1{fill:#7a00cc;}.cls-2{fill:#fff;}</style></defs><polygon class="cls-1" points="185.14 0 565.14 0 380 569.8 0 569.8 185.14 0"/><polygon class="cls-1" points="1550.84 191.74 1589.86 71.65 1669.86 71.65 1630.84 191.74 1550.84 191.74"/><polygon class="cls-2" points="1508.06 569.62 1428.06 569.62 1539.14 227.74 1619.14 227.74 1508.06 569.62"/><polygon class="cls-2" points="740.06 569.62 476.06 569.62 587.14 227.74 851.14 227.74 825.15 307.74 641.15 307.74 582.05 489.62 766.05 489.62 740.06 569.62"/><polygon class="cls-2" points="856.06 569.62 776.06 569.62 887.14 227.74 967.14 227.74 856.06 569.62"/><polygon class="cls-2" points="958.04 797.43 878.04 797.43 1063.14 227.74 1143.14 227.74 958.04 797.43"/><polygon class="cls-2" points="1332.06 569.62 1068.06 569.62 1094.05 489.62 1278.05 489.62 1337.15 307.74 1153.15 307.74 1179.14 227.74 1443.14 227.74 1332.06 569.62"/><polygon class="cls-2" points="2206.06 569.62 1976.06 569.62 2137.86 71.65 2217.86 71.65 2082.05 489.62 2232.05 489.62 2206.06 569.62"/><polygon class="cls-2" points="2025.15 307.74 1911.15 307.74 1937.14 227.74 2051.14 227.74 2025.15 307.74"/><polygon class="cls-2" points="2291.15 307.74 2177.11 307.74 2203.1 227.74 2317.14 227.74 2291.15 307.74"/><polygon class="cls-2" points="4110.06 569.62 3730.06 569.62 3756.05 489.62 4055.71 489.62 4072.25 438.71 3772.59 438.71 3841.14 227.74 4221.14 227.74 4195.15 307.74 3895.15 307.74 3878.59 358.71 4178.59 358.71 4110.06 569.62"/><polygon class="cls-2" points="2784.04 797.43 2704.04 797.43 2889.14 227.74 2969.14 227.74 2784.04 797.43"/><polygon class="cls-2" points="3158.06 569.62 2894.06 569.62 2920.05 489.62 3104.05 489.62 3163.15 307.74 2979.15 307.74 3005.14 227.74 3269.14 227.74 3158.06 569.62"/><polygon class="cls-2" points="3634.06 569.62 3254.06 569.62 3365.14 227.74 3745.14 227.74 3676.65 438.53 3412.65 438.53 3438.64 358.53 3622.64 358.53 3639.15 307.74 3419.15 307.74 3360.05 489.62 3660.05 489.62 3634.06 569.62"/><polygon class="cls-2" points="2608.01 797.51 2380.01 797.51 2406.01 717.51 2554 717.51 2713.14 227.74 2793.14 227.74 2608.01 797.51"/><polygon class="cls-2" points="2566.05 569.62 2338.06 569.62 2423.15 307.74 2387.15 307.74 2413.14 227.74 2529.14 227.74 2444.05 489.62 2592.05 489.62 2566.05 569.62"/><polygon class="cls-2" points="1672.6 358.68 1858.6 358.68 1832.6 438.68 1646.6 438.68 1672.6 358.68"/></svg>